<svg width="15" height="13" fill="none" xmlns="http://www.w3.org/2000/svg"><path fill-rule="evenodd" clip-rule="evenodd" d="M7.2552 11.9951c-.08149-.0813-.14613-.1778-.19024-.2841a.87519.87519 0 01-.06682-.3354c0-.1151.02271-.229.06682-.3353a.875395.875395 0 01.19024-.2842l4.6321-4.63027-4.6321-4.63031a.875938.875938 0 01-.18991-.28421.87603.87603 0 010-.670518.875978.875978 0 01.18991-.284217.87604.87604 0 01.61947-.256594.87604.87604 0 01.61947.256594L13.7439 5.50636c.0815.08127.1462.17783.1903.28413a.875059.875059 0 01.0668.33534c0 .11509-.0227.22904-.0668.33534-.0441.1063-.1088.20286-.1903.28413l-5.24976 5.2498c-.08127.0815-.17783.1461-.28413.1902a.875146.875146 0 01-.67069 0c-.10629-.0441-.20285-.1087-.28412-.1902z" fill="#D8AD3D"/><path fill-rule="evenodd" clip-rule="evenodd" d="M13.124 6.12577c0 .23205-.0922.4546-.2562.61869-.1641.16409-.3867.25627-.6187.25627H.874537c-.232055 0-.454606-.09218-.618694-.25627-.164087-.16409-.25627-.38664-.25627-.61869 0-.23206.092183-.45461.256271-.6187.164087-.16408.386638-.25627.618693-.25627l11.374563.00001c.232 0 .4546.09218.6187.25627.164.16408.2562.38663.2562.61869z" fill="#D8AD3D"/></svg>