<svg width="24" height="23" fill="none" xmlns="http://www.w3.org/2000/svg"><path d="M23.3599 6.63258a8.133034 8.133034 0 00-.5219-2.76067 5.74339 5.74339 0 00-1.2942-1.986 5.743006 5.743006 0 00-1.986-1.29416c-.8716-.327198-1.7925-.50412-2.7233-.523232C15.6361.01495 15.2561 0 12.2139 0 9.17166 0 8.78173 0 7.592.068518A8.229653 8.229653 0 004.86996.59175a5.739342 5.739342 0 00-1.98625 1.29392A5.73924 5.73924 0 001.5898 3.87191a8.164852 8.164852 0 00-.52199 2.72205C1.01424 7.79365.998047 8.17362.998047 11.2158c0 3.0422 0 3.4309.069763 4.6219.01869.9319.19434 1.8512.52199 2.7245.28887.7447.7299 1.421 1.29491 1.9856.56502.5645 1.24159 1.0051 1.98649 1.2934a8.204207 8.204207 0 002.72205.5606c1.1997.0535 1.57966.0697 4.62185.0697 3.0422 0 3.4322 0 4.6219-.0697.9308-.0184 1.8517-.1949 2.7233-.522.7446-.2889 1.4208-.7298 1.9856-1.2946.5647-.5647 1.0056-1.241 1.2946-1.9856.3276-.872.5033-1.7914.5219-2.7245.0536-1.1985.0698-1.5784.0698-4.6219-.0025-3.04221-.0025-3.4284-.0723-4.62062zM12.2064 16.9689c-3.18174 0-5.75928-2.5776-5.75928-5.7593 0-3.18174 2.57754-5.75928 5.75928-5.75928 1.5275 0 2.9924.60678 4.0724 1.68686 1.0801 1.08007 1.6869 2.54497 1.6869 4.07242 0 1.5275-.6068 2.9924-1.6869 4.0724-1.08 1.0801-2.5449 1.6869-4.0724 1.6869zm5.9885-10.38865c-.7437 0-1.343-.60047-1.343-1.34296 0-.17627.0348-.35083.1022-.51369.0675-.16286.1664-.31083.291-.43548.1247-.12465.2726-.22352.4355-.29098.1629-.06746.3374-.10218.5137-.10218.1763 0 .3508.03472.5137.10218.1628.06746.3108.16633.4355.29098.1246.12465.2235.27262.2909.43548.0675.16286.1022.33742.1022.51369 0 .74249-.6004 1.34296-1.3417 1.34296z" fill="#B72C2C"/><path d="M12.2059 14.9508c2.0662 0 3.7411-1.675 3.7411-3.7411 0-2.06618-1.6749-3.74113-3.7411-3.74113-2.0661 0-3.74106 1.67495-3.74106 3.74113 0 2.0661 1.67496 3.7411 3.74106 3.7411z" fill="#B72C2C"/></svg>