<svg width="151" height="90" fill="none" xmlns="http://www.w3.org/2000/svg"><path d="M10.5 75.6C5.83333 74.4667 2.36667 70.5667.1 63.9c-.066667-.4-.1-1.2-.1-2.4 0-1.6667.066666-3.3.2-4.9.133333-1.6667.3-2.6333.5-2.9.2-.1333.3-.5333.3-1.2-.066667-.4.16667-1.5.7-3.3.46667-1.2.6-2.2333.4-3.1.06667-.1333.16667-.3667.3-.7.2-.3333.43333-.6667.7-1 .33333-.3333.5-.6667.5-1 .06667-.4.06667-.6667 0-.8v-.1c0-.2667.06667-.6.2-1 .2-.4667.4-.8333.6-1.1.2-.2.36667-.4667.5-.8.2-.3333.33333-.5667.4-.7.06667-.4667.56667-1.9333 1.5-4.4 1-2.5333 1.66667-4.0667 2-4.6v-.2c.26667-.6667.63333-1.3667 1.1-2.1.1333-.9333.6-2.2333 1.4-3.9 1.5333-3.4 3.6667-7.3 6.4-11.7 2.8-4.46666 5-7.46666 6.6-9 1.7333-2 3.3-3 4.7-3 .7333 0 1.4.3 2 .900001.4667.466669.8333 1.133339 1.1 2.000009.3333.86666.5 1.63332.5 2.29999 0 .93334-.2667 1.43334-.8 1.5-.6667.46667-1.7 1.83334-3.1 4.1-1.3333 2.2667-3.1333 5.4667-5.4 9.6l-1.5 2.8c-.8667 1.8667-1.6333 3.4333-2.3 4.7-.6 1.2667-1 2.1-1.2 2.5l-.4.9c-1.6 3.4-3.1 7.0667-4.5 11-.3333.4-.5667.8333-.7 1.3-.0667.4-.1.6667-.1.8-.1333-.0667-.2667.1333-.4.6-.0667.4-.1667.7667-.3 1.1-.4667.4-.7 1.3667-.7 2.9-.6 1.6-1.1333 3.6-1.6 6-.46667 2.4-.7 4.3667-.7 5.9 0 1.4667.23333 2.6667.7 3.6.5333.9333 1.3333 1.6333 2.4 2.1 1.6.8 2.8 1.2 3.6 1.2.4667.0667 1.1667.0333 2.1-.1 1-.1333 2.1333-.3 3.4-.5H21c.3333-.0667 2.1667-.4667 5.5-1.2 1.6-.2 2.9333-.5 4-.9.5333-.1333 1.2667-.3333 2.2-.6 1-.3333 1.7333-.5 2.2-.5.4667-.0667.8-.0333 1 .1.4.4.7667.9667 1.1 1.7.4.6667.5 1.2667.3 1.8-.1333.3333-.8333 1.0333-2.1 2.1-1.2667 1.1333-2.6667 2.2-4.2 3.2s-2.8667 1.6667-4 2c-2.2667 1-5.5333 1.5-9.8 1.5-3 0-5.2333-.2667-6.7-.8zM50.4781 68.8c-.8 0-1.4333-.1333-1.9-.4-.4666-.2667-1.1333-.7667-2-1.5-1.3333-1.4-2.3666-2.8333-3.1-4.3-.7333-1.5333-1-2.8667-.8-4 .2-.4667.2667-.9333.2-1.4v-.9c-.2666-.2667-.4-.4333-.4-.5 0-.1333.0667-.2333.2-.3.1334-.1333.2334-.2667.3-.4.4 0 .5334-.3667.4-1.1-.1333-.5333.1-1.7.7-3.5s1.3667-3.4667 2.3-5c.7334-1.2 1.8-2.7 3.2-4.5 1.4667-1.8 2.7667-3.1667 3.9-4.1 3.3334-2.8667 6.3334-4.6 9-5.2 1.3334-.3333 2.6334-.5 3.9-.5 1.9334 0 3.4334.5333 4.5 1.6 1.4667.6 2.5334 1.4667 3.2 2.6.6667 1.1333 1.1 2.6333 1.3 4.5.0667.4.1 1.0667.1 2 0 4.9333-1.8666 10.0667-5.6 15.4-1.5333 2.2-3.0666 3.9667-4.6 5.3-1.5333 1.3333-3.4 2.6667-5.6 4-1.2.8-2.4666 1.3333-3.8 1.6-1.3333.2667-3.1333.4667-5.4.6zm10.2-12.2c1.2667-1.1333 2.1667-2.2667 2.7-3.4.6-1.2 1.4334-3.2667 2.5-6.2.4-.6.6-1.8.6-3.6 0-1.6-.2333-2.5-.7-2.7-.3333-.2667-.7333-.4-1.2-.4-.6 0-1.5666.4667-2.9 1.4-2.3333 2-4.3 4.1-5.9 6.3-1.5333 2.1333-2.6 4.6-3.2 7.4-.0666.2667-.1.6667-.1 1.2 0 2.2667.8 3.4 2.4 3.4 1.5334 0 3.4667-1.1333 5.8-3.4zM112.009 39.8c.266.5333.4 1.2.4 2 0 1.5333-.5 2.9667-1.5 4.3-.2.3333-.567.8667-1.1 1.6-.534.6667-1 1.3667-1.4 2.1-.4.7333-.7 1.5667-.9 2.5-.2 1.2667-.6 2.8-1.2 4.6-.534 1.7333-.9 2.9-1.1 3.5-.534 1.4-1.134 3.2667-1.8 5.6l-1.6 6.2c-1.467 5.0667-3.1671 8.9667-5.1004 11.7-1.9333 2.8-3.7333 4.6667-5.4 5.6-.8667.3333-1.7.5-2.5.5-1.4667 0-3-.5-4.6-1.5-1.5333-.9333-2.8667-2.2333-4-3.9-.7333-1-1.6667-2.9-2.8-5.7-1.1333-2.7333-1.5-4.2-1.1-4.4.2667-.9333 1.2333-1.4 2.9-1.4.8 0 1.5333.1 2.2.3.6667.2667 1.0333.5667 1.1.9.6 1.7333 1.3333 3.0667 2.2 4 .5333.8667 1.1 1.5333 1.7 2 .6667.4667 1.3.7 1.9.7.4 0 .6667-.0667.8-.2 1.0667-.8 1.8667-1.7667 2.4-2.9.6-1.1333 1.4-3.2333 2.4-6.3 1.5333-5.3333 2.7333-9.1333 3.6-11.4.2-.7333.5333-1.5667 1-2.5l-1.8 1.4c-.6667.5333-1.4 1.1-2.2 1.7-.8.5333-1.6667 1-2.6 1.4-.4667.6-1.6333.9-3.5.9-1.4 0-2.7333-.2-4-.6-1.2667-.6667-2.2333-1.4333-2.9-2.3-.6-.8667-1.2333-2.1667-1.9-3.9-.2667-.5333-.4-1.3667-.4-2.5 0-2.8667.6667-5.9333 2-9.2 1.2667-2.6 3.2667-5.3667 6-8.3 2.7333-2.9333 5.1-4.7 7.1-5.3 1.6-.8 3.2667-1.2 5-1.2.7334 0 1.2664.0667 1.6004.2 1.066.1333 1.9.3667 2.5.7.6.3333 1.6 1.1 3 2.3 3.2 3.2 5.066 5.4667 5.6 6.8zm-13.6004 9.4c1.2-1.6667 2.0004-3.1667 2.4004-4.5.466-1.3333.633-2.8.5-4.4-.067-1.6667-.8-2.5-2.2004-2.5-1.4 0-2.6333.4-3.7 1.2-1 .8-2.3333 2.2333-4 4.3-1 1.3333-1.8333 2.9333-2.5 4.8-.6 1.6667-.9 3.1-.9 4.3 0 1.4667.4 2.3667 1.2 2.7 2.1333-.0667 3.8-.4333 5-1.1 1.2-.6667 2.6-2.2667 4.2-4.8zM125.834 68.7c-.333.0667-.766.1-1.3.1-.866 0-1.566-.1333-2.1-.4-.533-.3333-1.166-.8667-1.9-1.6-1.533-.7333-2.866-1.9667-4-3.7-1.133-1.7333-1.633-3.1-1.5-4.1.334-3.2 1.234-6.6667 2.7-10.4 1.467-3.8 3.367-7.2 5.7-10.2 2.4-3.0667 4.934-5.2 7.6-6.4 1.2-.4667 2.3-.7 3.3-.7 2.067 0 3.434.6667 4.1 2 .467.9333.7 1.6333.7 2.1 0 .8-.466 1.3333-1.4 1.6-.2 0-.433.1-.7.3-.266.2-.4.4-.4.6.067.0667.367.1.9.1 1.134 0 2.534-.1667 4.2-.5 1.667-.3333 2.734-.7 3.2-1.1.4-.2.734-.3 1-.3l1.4.2c1.134.3333 1.7.7333 1.7 1.2 0 .3333.1.7667.3 1.3.267.5333.5.8.7.8.334 0 .5.2333.5.7 0 .4-.233.9333-.7 1.6-.4.6-1 1.2-1.8 1.8-.333.2-.833.5-1.5.9-.6.4-.966.7333-1.1 1-.066.2667-.033.6333.1 1.1.267.5333.4 1.2.4 2 0 2.2667-1.1 4.9333-3.3 8-2.2 3-4.9 5.6667-8.1 8-3.133 2.3333-6.033 3.6667-8.7 4zm.3-8.4c.4 0 1.4-.4 3-1.2.867-.8667 1.567-1.4 2.1-1.6.2 0 .367-.1667.5-.5.2-.4.5-.9667.9-1.7.467-.8 1.2-1.8333 2.2-3.1 1.067-1.2 1.8-2.1667 2.2-2.9.467-.7333.7-1.4667.7-2.2 0-.2667-.066-.7333-.2-1.4-.066-.2-.3-.3667-.7-.5-.333-.2-.666-.3667-1-.5-.333 0-.666.1-1 .3-.333.1333-.566.2-.7.2-.333 0-.7-.1667-1.1-.5l-1.6-2-1.7 1.7c-1.533 1.5333-2.833 3.6-3.9 6.2-1 2.6-1.6 4.9667-1.8 7.1-.066.9333.067 1.6.4 2 .4.3333.967.5333 1.7.6z" fill="#3F454A"/></svg>