<svg width="27" height="19" fill="none" xmlns="http://www.w3.org/2000/svg"><path d="M26.1427 2.93734a3.341564 3.341564 0 00-.8609-1.49044c-.4122-.41312-.9253-.711076-1.4885-.864224C21.7053.009343 13.352.00001 13.352.00001S5-.009323 2.91067.538676a3.413363 3.413363 0 00-1.48725.877514 3.413306 3.413306 0 00-.867418 1.49315c-.550666 2.088-.556 6.41867-.556 6.41867S-.005331 13.68.541335 15.7467C.848002 16.8893 1.748 17.792 2.892 18.1c2.10934.5733 10.44.5827 10.44.5827s8.3533.0093 10.4413-.5374c.5634-.1528 1.077-.4501 1.4902-.8624.4132-.4123.7117-.9252.8658-1.4882.552-2.0867.556-6.41602.556-6.41602s.0267-4.35334-.5426-6.44134zM10.68 13.34l.0067-7.99999 6.9426 4.00667L10.68 13.34z" fill="#D8AD3D"/></svg>